<svg xmlns="http://www.w3.org/2000/svg" data-name="Layer 1" viewBox="0 0 512 640" x="0px" y="0px"><title>Artboard 1</title><path d="M181.282,217.387c41.478,0,75.224-34.692,75.224-77.334S222.76,62.718,181.282,62.718s-75.225,34.692-75.225,77.335S139.8,217.387,181.282,217.387Zm0-140.669c33.759,0,61.224,28.412,61.224,63.335s-27.465,63.334-61.224,63.334-61.225-28.411-61.225-63.334S147.522,76.718,181.282,76.718Z"/><path d="M358.338,210.928a104.134,104.134,0,0,0-84.075,42.928,103.792,103.792,0,1,0,84.075-42.928Zm0,193.58a89.79,89.79,0,1,1,89.79-89.79A89.461,89.461,0,0,1,358.338,404.508Z"/><path d="M358.338,180.153a135.012,135.012,0,0,0-109.005,55.659c-.413.568-.8,1.4-1.2,1.969A134.708,134.708,0,0,0,215.428,234h-58.18C81.072,234,19.1,297.69,19.1,376.105a6.911,6.911,0,0,0,7,6.895H242.223a123.154,123.154,0,0,0,11.637,16.667,134,134,0,0,0,104.478,49.686c74.2,0,134.564-60.4,134.564-134.6S432.537,180.153,358.338,180.153ZM33.281,369c3.529-68,57.783-121,123.967-121h58.18a120.928,120.928,0,0,1,24.86,2.337,133.588,133.588,0,0,0-16.515,64.645A135.25,135.25,0,0,0,235.1,369Zm325.057,66.282A120.565,120.565,0,1,1,478.9,314.718,120.123,120.123,0,0,1,358.338,435.282Z"/><path d="M375.385,287.427a7.072,7.072,0,0,0,7.084,7,6.894,6.894,0,0,0,6.874-7A31.907,31.907,0,0,0,363,256.078V245.527a7,7,0,0,0-14,0v10.552a31.6,31.6,0,0,0-26,31.348v2.714a31.607,31.607,0,0,0,26,31.348V359.5a17.846,17.846,0,0,1-12.047-16.931,6.929,6.929,0,0,0-6.916-7,7.109,7.109,0,0,0-7.126,7A31.682,31.682,0,0,0,349,373.921v10.552a7,7,0,0,0,14,0V373.922c15-2.673,27-15.708,27-31.349v-2.714c0-15.641-12-28.676-27-31.348V270.5A18.148,18.148,0,0,1,375.385,287.427ZM337,290.141v-2.714A17.805,17.805,0,0,1,349,270.5v36.576A17.805,17.805,0,0,1,337,290.141Zm39,49.718v2.714c0,7.874-6,14.562-13,16.931V322.928C370,325.3,376,331.985,376,339.859Z"/></svg>